HIERARCHY
ROOT Hips
{
	OFFSET 0.00000 0.00000 0.00000
	CHANNELS 6 Xposition Yposition Zposition Yrotation Zrotation Xrotation 
	JOINT Lumbar
	{
		OFFSET 0 0 0
		CHANNELS 3 Zrotation Xrotation Yrotation
		JOINT Neck
		{
			OFFSET 0.00 0.2701 0.00
			CHANNELS 3 Zrotation Xrotation Yrotation
			End Site
			{
				OFFSET 0.00 0.1379 0.00
			}
		}
		JOINT RightShoulder
		{
			OFFSET 0.0119 0.2289 0.1181
			CHANNELS 3 Zrotation Xrotation Yrotation
			JOINT RightElbow
			{
				OFFSET 0.00 -0.1475 0.00
				CHANNELS 2 Zrotation Yrotation
				JOINT RightWrist
				{
					OFFSET 0.00 -0.1605 0.00
					CHANNELS 2 Zrotation Xrotation
					End Site
					{
						OFFSET 0.0040 -0.1068 0.0006
					}
				}
			}
		}
		JOINT LeftShoulder
		{
			OFFSET 0.0119 0.2289 -0.1181
			CHANNELS 3 Zrotation Xrotation Yrotation
			JOINT LeftElbow
			{
				OFFSET 0.00 -0.1475 0.00
				CHANNELS 2 Zrotation Yrotation
				JOINT LeftWrist
				{
					OFFSET 0.00 -0.1605 0.00
					CHANNELS 2 Zrotation Xrotation
					End Site
					{
						OFFSET 0.0040 -0.1068 -0.0006
					}
				}
			}
		}
	}
	JOINT RightHip
	{
		OFFSET 0.0316 -0.0424 0.0458
		CHANNELS 3 Zrotation Xrotation Yrotation
		JOINT RightKnee
		{
			OFFSET 0.00 -0.2438 0.00
			CHANNELS 1 Zrotation
			JOINT RightAnkle
			{
				OFFSET 0.00 -0.2449 0.00
				CHANNELS 3 Zrotation Xrotation Yrotation
				End Site
				{
					OFFSET 0.1237 -0.0542 0.0051
				}
			}
		}
	}
	JOINT LeftHip
	{
		OFFSET 0.0316 -0.0424 -0.0458
		CHANNELS 3 Zrotation Xrotation Yrotation
		JOINT LeftKnee
		{
			OFFSET 0.00 -0.2438 0.00
			CHANNELS 1 Zrotation
			JOINT LeftAnkle
			{
				OFFSET 0.00 -0.2449 0.00
				CHANNELS 3 Zrotation Xrotation Yrotation
				End Site
				{
					OFFSET 0.1237 -0.0542 -0.0051
				}
			}
		}
	}
}
MOTION
Frames: 30
Frame Time: 0.02
0.0008 0.00019 -0.00025 29.71935 -20.29871 -3.71912 44.60517 -1.32107 -8.02832 -12.55413 3.20019 -1.14866 -19.66875 -5.25271 -5.03918 27.02561 95.1748 7.80631 1.72302 -20.172 5.18042 3.93332 29.81931 -147.63281 30.07189 -8.61497 29.8393 -4.42515 -14.87195 -20.35263 -6.40938 -3.21211 -3.77754 34.47401 5.19415 7.40014 -24.46618 -6.49376 1.82053 3.15582
0.0006 0.00015 6e-05 29.68836 -20.29212 -3.70626 44.55813 -1.30234 -8.05216 -12.58181 3.19445 -1.14946 -19.62182 -5.30341 -4.89552 26.98466 95.11269 7.80966 1.71996 -20.16249 5.37941 3.2386 29.87609 -143.34731 28.66185 -7.93805 29.88501 -4.40414 -14.77824 -20.36149 -6.41028 -3.21343 -3.77953 34.50512 5.20967 7.44256 -24.4754 -6.50754 1.82581 3.15517
0.0004 0.00011 0.00037 29.65743 -20.28559 -3.69343 44.51119 -1.28364 -8.07592 -12.60928 3.18873 -1.15026 -19.57498 -5.35369 -4.75343 26.94377 95.05733 7.8148 1.71797 -20.15296 5.57781 2.54598 29.93267 -139.07496 27.25616 -7.26322 29.93071 -4.38313 -14.68437 -20.37034 -6.4112 -3.21479 -3.78153 34.53624 5.22512 7.48476 -24.4846 -6.52129 1.83109 3.15454
0.0002 6e-05 0.00068 29.62653 -20.27902 -3.6806 44.46429 -1.26497 -8.09969 -12.63686 3.18301 -1.15106 -19.52819 -5.40419 -4.61044 26.90294 94.99669 7.81849 1.71512 -20.14347 5.77619 1.8534 29.98927 -134.80265 25.85046 -6.58838 29.9763 -4.36217 -14.59086 -20.37917 -6.4121 -3.21612 -3.78352 34.56727 5.24059 7.52702 -24.49379 -6.53502 1.83635 3.1539
-1e-05 2e-05 0.00099 29.59557 -20.27238 -3.66777 44.41731 -1.24627 -8.12354 -12.66469 3.17726 -1.15186 -19.48134 -5.45525 -4.46536 26.86207 94.92627 7.81955 1.71074 -20.134 5.97518 1.15875 30.04609 -130.51722 24.44041 -5.91145 30.02185 -4.34126 -14.4977 -20.38802 -6.41296 -3.2174 -3.78548 34.59825 5.25613 7.56955 -24.503 -6.54879 1.84162 3.15324
-0.00021 -2e-05 0.0013 29.5647 -20.2661 -3.65493 44.37046 -1.22758 -8.14711 -12.69141 3.17161 -1.15266 -19.43453 -5.50391 -4.32948 26.82114 94.90218 7.83319 1.71371 -20.12435 6.1723 0.47041 30.10218 -126.27262 23.04397 -5.24108 30.06787 -4.32003 -14.40239 -20.39685 -6.41399 -3.21891 -3.78757 34.62967 5.2714 7.61107 -24.51219 -6.56248 1.8469 3.15264
-0.00041 -6e-05 0.0016 29.53369 -20.25909 -3.64211 44.3234 -1.20889 -8.17121 -12.72034 3.16577 -1.15346 -19.38768 -5.55725 -4.17554 26.78037 94.78657 7.82196 1.70213 -20.11508 6.37295 -0.22981 30.15964 -121.95077 21.62176 -4.55829 30.1129 -4.29945 -14.31139 -20.40572 -6.41469 -3.21997 -3.78942 34.66017 5.2872 7.65453 -24.5214 -6.57632 1.85216 3.15194
-0.00061 -0.0001 0.00191 29.50282 -20.25276 -3.62928 44.27654 -1.1902 -8.19484 -12.7472 3.16009 -1.15426 -19.34087 -5.60643 -4.03769 26.73948 94.75228 7.83281 1.70349 -20.10548 6.57039 -0.91918 30.21588 -117.69971 20.22316 -3.88687 30.15884 -4.27831 -14.21663 -20.41455 -6.41569 -3.22143 -3.79147 34.69152 5.30252 7.69626 -24.5306 -6.59002 1.85743 3.15133
-0.00082 -0.00015 0.00222 29.47207 -20.24724 -3.61641 44.22986 -1.17152 -8.21781 -12.77165 3.15465 -1.15506 -19.29408 -5.64992 -3.9219 26.69829 94.83076 7.87435 1.72278 -20.09539 6.7638 -1.59516 30.27047 -113.53517 18.85346 -3.22939 30.20592 -4.25631 -14.11632 -20.42335 -6.41709 -3.22346 -3.79381 34.72391 5.3172 7.73567 -24.53976 -6.60356 1.86273 3.15082
-0.00101 -0.00019 0.00253 29.44046 -20.23698 -3.6037 44.18196 -1.15279 -8.24435 -12.81032 3.14796 -1.15585 -19.2471 -5.72432 -3.68641 26.65837 94.30071 7.75048 1.64528 -20.08782 6.98011 -2.3478 30.33409 -108.87265 17.31758 -2.4918 30.24652 -4.23871 -14.04506 -20.43236 -6.4163 -3.22243 -3.79463 34.75032 5.3354 7.7878 -24.54909 -6.61805 1.86793 3.14973
-0.00123 -0.00023 0.00284 29.41077 -20.23676 -3.59067 44.13673 -1.13417 -8.26349 -12.81879 3.14382 -1.15667 -19.20057 -5.73466 -3.69873 26.61606 95.02808 7.96825 1.76777 -20.07513 7.14824 -2.93891 30.37898 -105.26123 16.13233 -1.92323 30.30073 -4.21218 -13.91441 -20.4409 -6.42004 -3.22772 -3.79858 34.78936 5.34628 7.81348 -24.55806 -6.63053 1.8733 3.14984
-0.00152 -0.00029 0.00317 29.38581 -20.26398 -3.57662 44.09823 -1.11585 -8.26113 -12.74485 3.14757 -1.15756 -19.15485 -5.55788 -4.43695 26.56488 99.46064 9.19408 2.47968 -20.04689 7.18188 -3.08095 30.36954 -104.55818 15.91823 -1.82283 30.39314 -4.15805 -13.60327 -20.44818 -6.43717 -3.25173 -3.812 34.86318 5.33624 7.76275 -24.56625 -6.63747 1.8793 3.15342
-0.00185 -0.00035 0.00351 29.36295 -20.30129 -3.56229 44.06252 -1.09765 -8.25157 -12.64044 3.1537 -1.15848 -19.10972 -5.31885 -5.41553 26.51182 105.10937 10.75012 3.38498 -20.01384 7.1676 -3.06192 30.342 -104.90634 16.0546 -1.89137 30.49904 -4.09553 -13.23567 -20.45498 -6.45869 -3.28185 -3.82841 34.94966 5.31902 7.68613 -24.57406 -6.64241 1.88543 3.15817
-0.00216 -0.00041 0.00384 29.33945 -20.33405 -3.54819 44.02596 -1.0794 -8.24608 -12.54971 3.15816 -1.15938 -19.06452 -5.11569 -6.2541 26.46098 110.03439 12.10869 4.17511 -19.98389 7.17671 -3.12034 30.32451 -104.75746 16.02466 -1.87971 30.59822 -4.0389 -12.90542 -20.46195 -6.4776 -3.30829 -3.84288 35.03027 5.30566 7.62391 -24.58193 -6.64832 1.89141 3.16228
-0.00247 -0.00047 0.00418 29.31442 -20.36666 -3.53361 43.98771 -1.06109 -8.23717 -12.45981 3.16516 -1.16029 -19.0182 -4.8804 -7.22297 26.40393 115.68096 13.66714 5.0804 -19.94984 7.1788 -3.1603 30.29872 -104.69129 16.02491 -1.88269 30.69997 -3.97353 -12.52596 -20.46907 -6.4991 -3.33853 -3.8598 35.11139 5.28976 7.55069 -24.59025 -6.65397 1.89781 3.16688
-0.00278 -0.00052 0.00451 29.29334 -20.40198 -3.52001 43.95355 -1.04296 -8.23373 -12.36072 3.16734 -1.1612 -18.97471 -4.69728 -7.97754 26.35992 120.1165 14.88867 5.7922 -19.92347 7.18432 -3.20076 30.28663 -104.7032 16.04564 -1.89542 30.79951 -3.92431 -12.2353 -20.47582 -6.51625 -3.36232 -3.87237 35.19446 5.27746 7.49402 -24.59755 -6.65968 1.90333 3.17071
-0.00305 -0.00057 0.00479 29.28031 -20.44231 -3.50901 43.93069 -1.02513 -8.24665 -12.24591 3.15657 -1.1621 -18.93606 -4.67416 -8.07833 26.34797 120.86758 15.08594 5.91565 -19.91727 7.21 -3.28078 30.31119 -104.65971 16.03352 -1.89139 30.88992 -3.92233 -12.20646 -20.48124 -6.52017 -3.36669 -3.87187 35.27983 5.27682 7.4913 -24.60207 -6.6661 1.9066 3.17226
-0.0033 -0.00061 0.00507 29.27169 -20.48505 -3.49905 43.9117 -1.0075 -8.26537 -12.12245 3.1407 -1.163 -18.90092 -4.70579 -7.95498 26.35021 120.36099 14.93381 5.83811 -19.91945 7.24113 -3.36723 30.3514 -104.66078 16.03052 -1.89175 30.97758 -3.93674 -12.2683 -20.48639 -6.51958 -3.3644 -3.86696 35.36674 5.28009 7.50571 -24.60557 -6.67263 1.90893 3.17297
-0.00357 -0.00065 0.00535 29.26246 -20.52665 -3.48871 43.89052 -0.98987 -8.28181 -12.00162 3.12655 -1.16389 -18.86581 -4.71169 -7.93709 26.34868 120.46366 14.95172 5.85789 -19.91919 7.27035 -3.45154 30.38794 -104.65007 16.02561 -1.89156 31.06628 -3.94335 -12.28695 -20.49193 -6.52113 -3.36522 -3.86426 35.45289 5.28158 7.51114 -24.60959 -6.67905 1.91155 3.17401
-0.00383 -0.00069 0.00563 29.24705 -20.56869 -3.47793 43.87135 -0.97183 -8.29667 -11.88552 3.11498 -1.16479 -18.82318 -4.71823 -7.91515 26.33514 120.46829 14.93884 5.86234 -19.91277 7.29505 -3.52663 30.40861 -104.64014 16.02343 -1.8911 31.15629 -3.9514 -12.31247 -20.4963 -6.52242 -3.36583 -3.86077 35.53963 5.28276 7.52101 -24.61339 -6.68565 1.91477 3.17534
-0.00409 -0.00073 0.00592 29.246 -20.61036 -3.4684 43.84877 -0.95473 -8.31607 -11.75754 3.09683 -1.16569 -18.7979 -4.73821 -7.84184 26.3508 120.33919 14.89632 5.84454 -19.92148 7.33164 -3.62489 30.46718 -104.62569 16.01326 -1.89012 31.24281 -3.96014 -12.34537 -20.50309 -6.52317 -3.36528 -3.85786 35.62549 5.2857 7.52564 -24.61737 -6.69195 1.91649 3.17583
-0.00433 -0.00076 0.00621 29.27946 -20.64914 -3.46122 43.81669 -0.94001 -8.34856 -11.60265 3.06139 -1.16658 -18.81228 -4.77343 -7.71237 26.43636 120.35688 14.91509 5.8493 -19.96767 7.39513 -3.78315 30.61848 -104.58097 15.97638 -1.88505 31.31937 -3.96949 -12.38183 -20.5162 -6.5232 -3.36259 -3.85744 35.70665 5.29171 7.51532 -24.62239 -6.69726 1.91452 3.17425
-0.00455 -0.00078 0.00651 29.32801 -20.68748 -3.45542 43.78094 -0.9263 -8.38502 -11.4359 3.01955 -1.16747 -18.84528 -4.82173 -7.53377 26.55188 120.24839 14.90646 5.83278 -20.02917 7.47141 -3.96552 30.80861 -104.5263 15.92997 -1.87872 31.39238 -3.9785 -12.42201 -20.53183 -6.52287 -3.35903 -3.85779 35.78692 5.29961 7.49871 -24.6276 -6.70229 1.91101 3.17184
-0.00478 -0.00081 0.00681 29.37223 -20.72699 -3.44958 43.74615 -0.91219 -8.41848 -11.27184 2.98087 -1.16837 -18.8747 -4.87046 -7.35394 26.65877 120.04218 14.86729 5.80011 -20.08528 7.54525 -4.13953 30.98686 -104.47513 15.88757 -1.87315 31.46787 -3.98598 -12.45709 -20.54657 -6.5229 -3.3562 -3.85791 35.86904 5.30717 7.48247 -24.63254 -6.70754 1.90804 3.16978
-0.00503 -0.00084 0.00708 29.40572 -20.76313 -3.44134 43.71412 -0.89768 -8.45744 -11.11747 2.94099 -1.16923 -18.88398 -4.89599 -7.2585 26.74623 120.40636 14.98608 5.8628 -20.13539 7.60545 -4.30369 31.14286 -104.42977 15.84654 -1.86711 31.54056 -4.00121 -12.50911 -20.56019 -6.52196 -3.35171 -3.85734 35.94601 5.31246 7.4767 -24.63817 -6.71244 1.90575 3.16782
-0.00523 -0.00086 0.00741 29.46533 -20.80534 -3.43834 43.6759 -0.88443 -8.48548 -10.94194 2.90211 -1.17017 -18.93916 -4.96994 -6.98778 26.87968 119.62038 14.78837 5.7329 -20.20109 7.69648 -4.49279 31.35225 -104.37014 15.80087 -1.86164 31.61711 -3.99992 -12.52628 -20.57681 -6.523 -3.35059 -3.85847 36.03236 5.32313 7.4482 -24.64247 -6.71798 1.90166 3.16544
-0.00532 -0.00087 0.0079 29.59134 -20.87097 -3.44996 43.6173 -0.8729 -8.48537 -10.69714 2.86792 -1.17135 -19.12014 -5.19446 -6.16499 27.14496 115.2441 13.59839 5.00332 -20.31013 7.87449 -4.75595 31.71635 -104.26435 15.73901 -1.85812 31.71462 -3.95326 -12.43851 -20.60061 -6.52984 -3.35897 -3.86415 36.15358 5.34609 7.35173 -24.6427 -6.72545 1.89315 3.16244
-0.00536 -0.00088 0.00845 29.74345 -20.94122 -3.46667 43.55346 -0.86292 -8.47353 -10.4347 2.83491 -1.17261 -19.34586 -5.46352 -5.18254 27.45307 109.79937 12.11459 4.0946 -20.43383 8.08228 -5.04145 32.1295 -104.1461 15.67405 -1.85517 31.81405 -3.88965 -12.3157 -20.62744 -6.53872 -3.37089 -3.87156 36.28223 5.37486 7.23397 -24.64164 -6.73355 1.88283 3.15899
-0.00541 -0.0009 0.00898 29.88494 -21.00535 -3.4807 43.49463 -0.85321 -8.46508 -10.18858 2.80115 -1.17383 -19.54885 -5.69844 -4.32814 27.73365 105.14788 10.85073 3.31773 -20.54771 8.27298 -5.30926 32.50927 -104.03906 15.61385 -1.85189 31.90685 -3.83385 -12.21463 -20.65321 -6.54644 -3.38115 -3.8781 36.40218 5.40223 7.13003 -24.64144 -6.74131 1.87328 3.15558
-0.00553 -0.00091 0.00949 30.02177 -21.08749 -3.49637 43.42416 -0.83931 -8.46502 -9.90436 2.76807 -1.17505 -19.76307 -5.99146 -3.24184 28.04971 99.21129 9.22636 2.32998 -20.67415 8.47858 -5.60915 32.93774 -103.90761 15.53815 -1.84891 32.02517 -3.77843 -12.09263 -20.67773 -6.55489 -3.39131 -3.88487 36.54612 5.42409 7.00754 -24.64018 -6.74934 1.86406 3.15289
